<svg width="2509" height="1552" viewBox="125 75 250 1552" fill="none" xmlns="http://www.w3.org/2000/svg">
<path fill-rule="evenodd" clip-rule="evenodd" d="M333.037 32.0763L351.8 377.358L418.816 348.736L413.431 273.816L524.643 226.319L575.043 282.014L642.912 253.029L406.455 0.720589L333.037 32.0763ZM486.432 184.092L400.128 88.7183L409.349 217.013L486.432 184.092Z" fill="black"/>
<path d="M693.671 93.2572L706.224 245.687L763.679 240.955L756.436 153.015C756.098 148.911 756.786 145.313 758.499 142.221C760.195 138.933 762.73 136.265 766.103 134.217C769.476 132.168 773.409 130.959 777.904 130.589C784.158 130.074 788.724 131.763 791.602 135.658C794.66 139.341 796.583 145.971 797.372 155.546L804.131 237.624L861.585 232.892L853.86 139.089C852.09 117.593 846.699 102.297 837.686 93.2017C828.674 84.1066 815.276 80.2912 797.492 81.7558C787.33 82.5927 778.575 84.9861 771.227 88.9359C763.863 92.6904 757.059 98.4646 750.815 106.259L750.229 106.307L748.194 88.767L693.671 93.2572Z" fill="black"/>
<path d="M364.621 1428.2C331.292 1427.68 302.985 1421.5 279.702 1409.66C256.689 1397.57 239.227 1380.22 227.314 1357.63C215.668 1335.05 210.097 1307.76 210.6 1275.76C211.107 1243.5 217.535 1216.39 229.881 1194.45C242.499 1172.25 260.496 1155.6 283.874 1144.5C307.522 1133.13 336.011 1127.71 369.34 1128.24C406.936 1128.83 440.014 1136.82 468.575 1152.2L450.308 1219.92C422.28 1204.55 396 1196.67 371.47 1196.28C355.205 1196.02 341.29 1199.01 329.724 1205.22C318.425 1211.45 309.613 1220.64 303.287 1232.81C297.232 1244.72 294.066 1259.47 293.79 1277.07C293.517 1294.4 296.217 1309.24 301.89 1321.6C307.83 1333.96 316.348 1343.43 327.446 1350.01C338.811 1356.59 352.626 1360 368.89 1360.26C393.421 1360.65 419.935 1353.6 448.433 1339.11L464.561 1407.37C435.53 1421.85 402.216 1428.79 364.621 1428.2Z" fill="black"/>
<path fill-rule="evenodd" clip-rule="evenodd" d="M545.348 1429.89C560.453 1444.83 582.146 1452.15 609.611 1452.58C637.246 1453.02 659.179 1446.4 674.567 1431.92C690.174 1417.42 697.826 1396.35 698.247 1369.59C698.668 1342.82 691.683 1321.53 676.539 1306.55C661.615 1291.59 639.9 1284.28 612.265 1283.85C584.801 1283.41 562.888 1290.05 547.321 1304.5C531.706 1319 524.05 1340.07 523.629 1366.84C523.208 1393.61 530.197 1414.91 545.348 1429.89ZM610.415 1401.43C603.401 1401.32 598.866 1398.84 595.9 1394.36C592.838 1389.23 591.044 1380.66 591.244 1367.9C591.449 1354.89 593.532 1346.43 596.709 1341.64C599.815 1337.24 604.431 1334.89 611.46 1335C618.764 1335.11 623.224 1337.65 625.966 1342.05C629.009 1346.94 630.837 1355.47 630.631 1368.52C630.43 1381.32 628.354 1389.84 625.116 1394.87C622.235 1399.16 617.702 1401.55 610.415 1401.43Z" fill="black"/>
<path d="M829.415 1306.2L829.613 1317.46C833.773 1313.87 838.112 1311.02 842.64 1308.97C850.16 1305.37 858.701 1303.72 868.132 1303.87C877.92 1304.03 886.436 1306.03 893.397 1310.19C898.742 1313.16 903.102 1317.23 906.476 1322.33C912.5 1316.94 918.816 1312.86 925.437 1310.19C933.674 1306.66 942.925 1305.05 953.088 1305.21C969.551 1305.47 982.486 1310.1 990.503 1320.24C998.545 1329.96 1001.86 1344.9 1001.56 1363.9L999.867 1471.79L933.427 1470.74L934.893 1377.55C935.004 1370.49 934.065 1366.49 932.917 1364.59L932.824 1364.43L932.743 1364.27C932.29 1363.38 931.765 1362.88 931.183 1362.55C930.566 1362.19 929.603 1361.89 928.085 1361.86C924.752 1361.81 922.139 1363 919.884 1365.73C917.781 1368.31 916.46 1372 916.378 1377.26L914.911 1470.45L848.472 1469.4L849.938 1376.22C850.049 1369.15 849.11 1365.15 847.962 1363.25L847.869 1363.1L847.787 1362.94C847.335 1362.05 846.809 1361.54 846.228 1361.21C845.61 1360.86 844.648 1360.55 843.13 1360.53C840.998 1360.49 839.142 1361.04 837.423 1362.19C835.697 1363.35 834.273 1365.01 833.196 1367.37L833.171 1367.43L833.144 1367.48C832.119 1369.59 831.478 1372.35 831.422 1375.92L829.956 1469.11L763.516 1468.07L766.078 1305.21L829.415 1306.2Z" fill="black"/>
<path fill-rule="evenodd" clip-rule="evenodd" d="M1229.1 1472.11L1229.08 1472.13C1217.17 1486.87 1200.3 1493.88 1179.23 1493.55C1169.64 1493.4 1160.92 1491.59 1153.18 1488L1153.1 1487.97L1153.03 1487.93C1148.26 1485.52 1143.56 1482.29 1138.9 1478.27L1137.74 1551.7L1070.13 1550.64L1073.66 1326.05L1138.17 1327.06L1138.39 1339.31C1143.65 1335.21 1149.03 1332.01 1154.53 1329.79C1162.76 1326.28 1171.91 1324.65 1181.89 1324.81C1202.97 1325.14 1219.61 1332.79 1231.05 1348.1C1242.35 1363.02 1247.41 1383.97 1247 1410.23C1246.59 1436.49 1240.86 1457.36 1229.11 1472.1L1229.1 1472.11ZM1174.39 1432.32L1174.42 1432.27C1178.11 1427.45 1180.39 1419.99 1180.56 1409.18C1180.73 1398.14 1178.68 1390.66 1175.19 1385.97L1175.14 1385.9L1175.09 1385.82C1171.92 1381.2 1167.22 1378.69 1160.17 1378.58C1155.94 1378.51 1152.44 1379.29 1149.52 1380.77C1146.59 1382.26 1144.31 1384.32 1142.6 1386.99C1141.1 1389.62 1140.24 1392.83 1140.18 1396.78L1139.81 1420.3C1139.75 1424.25 1140.51 1427.49 1141.92 1430.16C1143.55 1432.89 1145.76 1435.02 1148.64 1436.6C1151.52 1438.17 1154.99 1439.06 1159.21 1439.13C1166.27 1439.24 1171.04 1436.87 1174.35 1432.36L1174.39 1432.32Z" fill="black"/>
<path fill-rule="evenodd" clip-rule="evenodd" d="M1317.46 1465.61L1317.42 1465.57C1308.07 1455.7 1303.71 1442.82 1303.95 1427.46C1304.24 1409.05 1311.88 1394.56 1326.78 1384.6C1341.42 1374.82 1361.45 1370.44 1386.29 1370.83L1396.94 1371C1396.76 1369.04 1396.46 1367.6 1396.1 1366.61L1396.04 1366.45L1395.99 1366.28C1395.71 1365.31 1395.29 1364.88 1394.33 1364.57L1394.17 1364.51L1394.01 1364.45C1392.33 1363.77 1389.34 1363.24 1384.65 1363.17C1375.38 1363.02 1365.17 1363.81 1354 1365.55C1342.84 1367.29 1332.58 1369.72 1323.21 1372.8L1317.45 1374.7L1310.93 1323.29L1314.91 1322.04C1325.9 1318.56 1338.31 1316.05 1352.09 1314.47C1365.87 1312.7 1379.64 1311.92 1393.39 1312.14C1410.15 1312.4 1423.95 1314.6 1434.5 1319.01C1445.26 1323.3 1453.21 1330.39 1457.97 1340.28C1462.82 1349.95 1464.94 1362.33 1464.7 1377.07L1463.1 1479.07L1398.59 1478.06L1398.38 1466.22C1393.9 1469.73 1388.93 1472.66 1383.48 1475.02L1383.43 1475.04L1383.39 1475.06C1374.46 1478.73 1365.03 1480.47 1355.17 1480.32C1339.81 1480.07 1327.08 1475.32 1317.5 1465.66L1317.46 1465.61ZM1394.29 1425.13L1394.31 1425.1C1395.66 1423.26 1396.38 1421.16 1396.42 1418.63L1396.52 1411.87L1394.47 1411.84C1383.12 1411.66 1375.48 1412.81 1370.98 1414.81C1369 1415.73 1367.79 1416.81 1367.04 1417.93C1366.3 1419.05 1365.81 1420.51 1365.78 1422.56C1365.73 1425.51 1366.61 1427.3 1368.08 1428.57C1370.06 1429.91 1373.28 1430.9 1378.29 1430.98C1382.49 1431.05 1385.82 1430.49 1388.4 1429.49C1391.28 1428.25 1393.12 1426.75 1394.26 1425.16L1394.29 1425.13Z" fill="black"/>
<path d="M1606.14 1364.3C1604.78 1366.27 1603.97 1368.78 1603.92 1372.08L1602.45 1465.26L1534.84 1464.2L1537.4 1301.34L1601.91 1302.36L1602.12 1314.37C1607.18 1310.36 1612.48 1307.24 1618.02 1305.06C1626.46 1301.55 1636.09 1299.95 1646.8 1300.12C1665.5 1300.42 1680.13 1305.8 1689.47 1317.28C1698.65 1328.56 1702.54 1345.75 1702.19 1367.74L1700.64 1466.81L1633.02 1465.74L1634.39 1378.44C1634.54 1369 1633.22 1363.58 1631.46 1360.97L1631.38 1360.85L1631.3 1360.73C1629.97 1358.5 1627.51 1356.86 1622.39 1356.78C1618.54 1356.72 1615.3 1357.42 1612.54 1358.75C1609.75 1360.09 1607.7 1361.9 1606.22 1364.18L1606.18 1364.24L1606.14 1364.3Z" fill="black"/>
<path d="M1789.72 1513.96L1815.54 1447.65L1756.99 1288.79L1829.91 1289.94L1850.58 1377.98L1872.01 1290.6L1944.83 1291.75L1860.69 1515.07L1789.72 1513.96Z" fill="black"/>
<path d="M211.402 923.255C246.027 930.377 285.73 922.479 330.513 899.561C375.296 876.643 403.058 850.015 413.798 819.676C424.363 789.063 417.967 755.439 394.61 718.804L270.801 524.615L183.562 569.261L296.834 746.923C310.883 768.959 317.052 785.894 315.341 797.729C313.922 809.416 304.051 819.947 285.731 829.322C267.411 838.698 252.127 841.04 239.879 836.348C227.922 831.508 214.919 818.069 200.87 796.034L87.5979 618.371L0.358295 663.017L124.167 857.206C147.524 893.841 176.603 915.857 211.402 923.255Z" fill="black"/>
<path d="M471.964 552.532L535.524 799.278L628.063 782.32L591.394 639.967C589.683 633.324 589.341 627.424 590.368 622.267C591.313 616.793 593.508 612.25 596.951 608.638C600.395 605.025 604.687 602.748 609.828 601.806C616.897 600.51 622.57 602.287 626.848 607.135C631.364 611.607 635.131 619.696 638.146 631.4L674.814 773.753L767.354 756.796L730.685 614.443C728.159 604.637 728.531 596.287 731.803 589.393C735.314 582.124 741.086 577.754 749.119 576.282C756.188 574.986 761.861 576.762 766.138 581.61C770.655 586.083 774.421 594.172 777.436 605.876L814.105 748.229L906.644 731.272L863.864 565.193C856.123 535.141 844.757 514.532 829.767 503.365C815.017 491.823 794.79 488.408 769.084 493.118C753.34 496.003 740.055 501.253 729.23 508.868C718.324 516.167 708.756 526.699 700.524 540.465L699.56 540.641C691.246 530.57 681.255 523.788 669.588 520.294C658.16 516.425 644.895 515.875 629.794 518.642C615.334 521.292 603.335 526.306 593.795 533.686C584.174 540.749 575.891 551.046 568.945 564.576L567.981 564.752L559.684 536.458L471.964 552.532Z" fill="black"/>
<path fill-rule="evenodd" clip-rule="evenodd" d="M1128.05 744.732C1140.29 750.641 1154.24 754.028 1169.89 754.892C1202.84 756.712 1228.45 746.843 1246.74 725.287C1265.04 703.403 1274.83 671.074 1276.12 628.3C1277.4 585.526 1269.57 552.388 1252.64 528.885C1235.71 505.056 1210.77 492.231 1177.83 490.412C1162.83 489.583 1149.38 491.456 1137.48 496.032C1125.9 500.626 1114.06 508.802 1101.95 520.561L1100.97 520.507L1104.94 388.267L1009.04 382.97L998.313 740.509L1089.31 745.536L1091.17 716.203L1092.15 716.257C1103.86 729.005 1115.83 738.496 1128.05 744.732ZM1169.62 666.08C1162.14 675.806 1151.39 680.281 1137.36 679.507C1129.21 679.056 1122.08 677.027 1115.98 673.42C1109.88 669.812 1105.13 664.971 1101.72 658.895C1098.63 652.838 1097.2 645.891 1097.44 638.054L1098.62 598.872C1098.85 591.036 1100.69 584.269 1104.13 578.571C1107.89 572.892 1112.92 568.591 1119.22 565.668C1125.51 562.746 1132.74 561.509 1140.89 561.96C1154.91 562.734 1165.36 568.381 1172.24 578.899C1179.44 589.109 1182.76 603.847 1182.18 623.111C1181.61 642.05 1177.42 656.372 1169.62 666.08Z" fill="black"/>
<path d="M1421.86 532.037L1347.61 775.778L1440.84 802.624L1472.25 699.503C1476.25 686.378 1484.26 675.769 1496.29 667.676C1508.63 659.672 1523.28 654.715 1540.26 652.804C1557.54 650.984 1575.29 652.695 1593.49 657.937L1616.34 582.94C1603.47 579.234 1590.39 577.337 1577.1 577.249C1563.81 577.162 1550.58 579.129 1537.4 583.153C1524.63 586.954 1511.97 592.655 1499.41 600.256L1498.47 599.985L1510.38 557.527L1421.86 532.037Z" fill="black"/>
<path fill-rule="evenodd" clip-rule="evenodd" d="M1628.36 834.495C1640.35 866.13 1668.21 892.991 1711.95 915.076C1727.12 922.732 1742.78 929.18 1758.95 934.419C1775.25 940.09 1789.55 943.657 1801.86 945.123L1827.13 881.135C1814.98 879.386 1800.97 875.965 1785.09 870.873C1769.22 865.781 1755.01 860.069 1742.47 853.738C1725.56 845.199 1715.01 836.036 1710.83 826.251C1707.65 818.795 1708.08 809.416 1710.88 799.412L1857.46 873.423C1859.34 871.448 1862.21 867.414 1866.06 861.321C1869.92 855.227 1873.3 849.627 1876.22 844.521C1896.15 809.63 1901.56 777.46 1892.45 748.011C1883.8 718.426 1861.54 694.579 1825.67 676.469C1788.93 657.918 1754.23 653.554 1721.57 663.377C1688.91 673.201 1662.38 695.984 1641.96 731.726C1620.9 768.603 1616.37 802.859 1628.36 834.495ZM1738.64 750.388L1806.84 784.821C1811.97 773.245 1814.3 763.456 1813.82 755.453C1813.43 744.292 1807.25 735.694 1795.3 729.657C1783.63 723.768 1772.6 723.68 1762.2 729.392C1755.15 733.267 1746.71 740.872 1738.64 750.388Z" fill="black"/>
<path d="M2115.66 728.298L1883.93 1000.79L1963.16 1058.48L2194.88 785.984L2115.66 728.298Z" fill="black"/>
<path d="M2300.78 870.549L2035.83 1110.86L2107.74 1177.45L2372.69 937.135L2300.78 870.549Z" fill="black"/>
<path fill-rule="evenodd" clip-rule="evenodd" d="M2196.95 1228.78C2193.83 1247.65 2199.54 1266.53 2214.08 1285.43C2223.45 1297.6 2234.8 1307.55 2248.15 1315.3C2261.77 1322.87 2276.03 1327.53 2290.94 1329.3L2291.53 1330.08L2267.24 1346.51L2322.83 1418.73L2459.71 1332.65C2479.9 1319.95 2493.78 1306.8 2501.37 1293.19C2509.15 1279.85 2510.69 1265.05 2505.98 1248.8C2501.55 1232.38 2490.97 1213.3 2474.23 1191.55C2460.48 1173.69 2445.35 1156.7 2428.84 1140.57C2412.61 1124.27 2396.62 1110.7 2380.88 1099.85L2328.79 1144.14C2343.25 1153.87 2357.65 1165.37 2371.97 1178.65C2386.29 1191.92 2398.33 1204.9 2408.09 1217.59C2413.07 1224.06 2416.17 1229.41 2417.37 1233.65C2418.86 1237.71 2418.2 1241.39 2415.4 1244.68C2412.81 1248.24 2408.05 1252.19 2401.14 1256.54L2385 1235.57C2360.29 1203.47 2334.67 1182.7 2308.12 1173.27C2281.58 1163.84 2256.42 1166.61 2232.63 1181.56C2212.45 1194.26 2200.55 1210 2196.95 1228.78ZM2307.95 1293.82C2302.63 1290.64 2297.58 1285.94 2292.79 1279.73C2287.02 1272.22 2284.05 1265.44 2283.91 1259.38C2284.24 1253.41 2287.44 1248.52 2293.53 1244.69C2301.55 1239.65 2310.04 1239.49 2319.02 1244.22C2328.19 1249.21 2338.66 1259.34 2350.41 1274.61L2357.58 1283.93L2340.99 1294.36C2336.01 1297.49 2330.59 1298.98 2324.73 1298.83C2319.34 1298.76 2313.75 1297.09 2307.95 1293.82Z" fill="black"/>
<path d="M1216.23 1025.13C1215.63 1063.79 1183.8 1094.63 1145.14 1094.02C1106.49 1093.42 1075.64 1061.59 1076.25 1022.93C1076.86 984.277 1108.69 953.433 1147.34 954.041C1186 954.65 1216.84 986.479 1216.23 1025.13Z" fill="black"/>
<path fill-rule="evenodd" clip-rule="evenodd" d="M1129.59 1160.79C1196.68 1161.84 1251.93 1108.31 1252.98 1041.21C1254.04 974.12 1200.51 918.873 1133.41 917.818C1066.32 916.762 1011.07 970.297 1010.01 1037.39C1008.96 1104.49 1062.49 1159.73 1129.59 1160.79ZM1129.92 1139.79C1185.42 1140.66 1231.11 1096.38 1231.99 1040.88C1232.86 985.386 1188.58 939.688 1133.08 938.815C1077.58 937.942 1031.89 982.224 1031.01 1037.72C1030.14 1093.22 1074.42 1138.92 1129.92 1139.79Z" fill="black"/>
<path d="M920.27 1020.48C919.662 1059.13 887.833 1089.98 849.177 1089.37C810.522 1088.76 779.679 1056.93 780.287 1018.28C780.895 979.62 812.725 948.777 851.38 949.385C890.035 949.993 920.878 981.823 920.27 1020.48Z" fill="black"/>
<path fill-rule="evenodd" clip-rule="evenodd" d="M833.625 1156.13C900.72 1157.19 955.966 1103.65 957.021 1036.56C958.077 969.464 904.542 914.217 837.448 913.161C770.354 912.106 715.107 965.641 714.052 1032.74C712.996 1099.83 766.531 1155.08 833.625 1156.13ZM833.956 1135.13C889.453 1136.01 935.151 1091.73 936.024 1036.23C936.897 980.73 892.615 935.032 837.117 934.159C781.62 933.286 735.922 977.568 735.049 1033.07C734.176 1088.56 778.458 1134.26 833.956 1135.13Z" fill="black"/>
</svg>
