<svg width="293" height="343" viewBox="0 0 293 343" fill="none" xmlns="http://www.w3.org/2000/svg">
<path fill-rule="evenodd" clip-rule="evenodd" d="M0 343V0H116.62C156.473 0 189.467 7.02334 215.6 21.07C241.733 35.1167 261.007 55.0434 273.42 80.85C286.16 106.33 292.53 136.71 292.53 171.99C292.53 206.617 286.16 236.833 273.42 262.64C261.007 288.12 241.733 307.883 215.6 321.93C189.467 335.977 156.473 343 116.62 343H0ZM119.129 297.745C158.269 300.272 193.869 283.802 218.186 256.807C236.499 235.053 244.306 214.691 245.92 207.229C248.893 197.078 250.63 186.43 250.948 175.479C252.953 105.986 197.181 48.1378 126.386 46.0856C32.7715 43.3699 27.1129 105.692 54.0004 170.004C69.2422 206.458 69.1674 233.387 69.1132 252.904C69.0328 281.868 68.9976 294.511 119.129 297.745Z" fill="black"/>
</svg>
