<svg width="528" height="186" viewBox="0 0 528 186" fill="none" xmlns="http://www.w3.org/2000/svg">
<path fill-rule="evenodd" clip-rule="evenodd" d="M0.596191 170.909V2.56665H57.8324C77.3921 2.56665 93.585 6.01365 106.411 12.9077C119.237 19.8017 128.696 29.5815 134.789 42.2472C141.041 54.7526 144.168 69.6629 144.168 86.9781C144.168 103.973 141.041 118.803 134.789 131.468C128.696 143.974 119.237 153.674 106.411 160.568C93.585 167.462 77.3921 170.909 57.8324 170.909H0.596191ZM59.0637 148.698C78.2735 149.938 95.7454 141.854 107.68 128.606C116.668 117.929 120.5 107.935 121.292 104.273C122.751 99.2911 123.603 94.0652 123.759 88.6906C124.744 54.5838 97.3713 26.1923 62.6253 25.1851C16.6802 23.8523 13.903 54.4393 27.0992 86.0033C34.5798 103.895 34.5431 117.111 34.5164 126.69C34.477 140.905 34.4597 147.11 59.0637 148.698Z" fill="black"/>
<path fill-rule="evenodd" clip-rule="evenodd" d="M155.196 83.5623C155.196 72.0188 157.851 61.277 162.18 51.3368C166.509 41.2363 172.441 32.3382 179.976 24.6426C187.672 16.947 196.57 10.9348 206.67 6.60598C216.771 2.27719 227.593 0.112793 239.136 0.112793C250.68 0.112793 261.502 2.27719 271.602 6.60598C281.703 10.9348 290.52 16.947 298.056 24.6426C305.751 32.1779 311.764 40.9958 316.092 51.0963C320.421 61.1968 321.604 72.0188 321.604 83.5623C321.604 101.414 320.638 118.874 312.046 134.884C305.152 147.871 295.453 158.052 282.947 165.427C270.442 172.641 255.852 176.248 239.178 176.248C222.825 176.248 208.396 172.641 195.89 165.427C183.385 158.052 173.605 147.871 166.551 134.884C158.088 119.113 155.196 101.245 155.196 83.5623ZM278.095 104.966C268.636 122.121 257.042 132.17 240.368 132.17C223.854 132.17 210.377 121.139 200.918 103.984L211.981 97.7314C215.347 103.503 218.374 108.814 223.023 111.699C227.673 114.585 232.964 116.028 238.896 116.028C244.667 116.028 249.878 114.585 254.527 111.699C259.177 108.814 263.265 104.565 266.792 98.9535L278.095 104.966ZM217.252 74.1832C215.007 76.4278 212.201 77.5501 208.835 77.5501C205.468 77.5501 202.582 76.4278 200.177 74.1832C197.772 71.7783 196.57 68.8925 196.57 65.5256C196.57 62.1588 197.692 59.3531 199.937 57.1085C202.341 54.7037 205.307 53.5012 208.835 53.5012C212.362 53.5012 215.248 54.7037 217.492 57.1085C219.737 59.3531 220.859 62.1588 220.859 65.5256C220.859 68.8925 219.657 71.7783 217.252 74.1832ZM278.095 74.1832C275.69 76.4278 272.804 77.5501 269.438 77.5501C266.071 77.5501 263.185 76.4278 260.78 74.1832C258.536 71.7783 257.413 68.8925 257.413 65.5256C257.413 62.1588 258.536 59.3531 260.78 57.1085C263.185 54.7037 266.071 53.5012 269.438 53.5012C272.804 53.5012 275.69 54.7037 278.095 57.1085C280.5 59.3531 281.703 62.1588 281.703 65.5256C281.703 69.0528 280.5 71.9387 278.095 74.1832Z" fill="black"/>
<path d="M337.28 172.381V4.03906H371.189L415.082 107.472C423.615 127.008 426.477 120.428 430.466 111.258C445.941 75.6809 460.705 39.7786 475.801 4.03906H509.71V41.0743H509.58C509.42 42.8033 508.908 44.5282 508.017 46.146C507.18 47.663 506.454 48.9291 505.81 50.0505L505.809 50.0522L505.809 50.0535C504.456 52.411 503.47 54.1294 502.601 56.1957C501.575 58.639 501.289 60.4187 501.532 62.2675C502.725 71.356 507.145 85.0814 510.721 96.1821C511.54 98.727 512.315 101.134 512.997 103.316C514.157 107.029 515.509 110.956 516.978 115.226L517.092 115.557C518.582 119.888 520.176 124.531 521.651 129.258C524.576 138.626 527.275 149.048 527.916 159.445C528.233 164.595 527.75 170.041 524.775 174.166C520.789 179.674 518.638 185.387 509.892 185.387C502.709 185.387 496.886 179.564 496.886 172.381C496.886 168.61 497.982 165.534 499.133 163.273C500.07 161.433 501.239 159.805 501.791 159.035L501.793 159.033C501.141 152.308 499.294 144.932 496.821 137.009C495.41 132.489 493.868 128.011 492.328 123.534C490.902 119.39 489.443 115.15 488.169 111.074C487.667 109.468 487.038 107.525 486.329 105.337C484.331 99.1672 481.701 91.0461 479.513 83.0278C475.376 70.7871 472.214 71.4288 469.452 76.4922C459.146 100.433 448.836 124.382 438.526 148.332H408.464L371.918 63.4382C361.707 40.9427 361.33 55.4419 361.329 66.0828V172.381H337.28Z" fill="black"/>
</svg>
