<svg width="389" height="370" viewBox="0 0 389 370" fill="none" xmlns="http://www.w3.org/2000/svg">
<path d="M0 343V0H69.09L158.523 210.747C175.909 250.552 181.741 237.144 189.868 218.46C221.399 145.972 251.481 72.82 282.24 0H351.33V75.46H351.065C350.738 78.9829 349.697 82.4975 347.879 85.7938C346.176 88.8846 344.695 91.4643 343.384 93.7493L343.382 93.7528L343.38 93.7554C340.624 98.5589 338.615 102.06 336.846 106.27C334.754 111.249 334.172 114.875 334.667 118.642C337.097 137.16 346.104 165.125 353.389 187.743C355.059 192.929 356.638 197.833 358.027 202.278C360.392 209.844 363.145 217.845 366.138 226.545L366.371 227.221C369.407 236.045 372.654 245.504 375.661 255.135C381.62 274.224 387.12 295.46 388.425 316.643C389.071 327.136 388.087 338.232 382.025 346.636C373.904 357.86 369.522 369.5 351.701 369.5C337.065 369.5 325.201 357.636 325.201 343C325.201 335.316 327.433 329.049 329.779 324.443C331.688 320.694 334.069 317.376 335.196 315.808L335.199 315.803C333.87 302.102 330.108 287.072 325.068 270.928C322.194 261.719 319.052 252.596 315.913 243.474C313.007 235.029 310.035 226.39 307.44 218.086C306.417 214.814 305.135 210.855 303.691 206.396C299.62 193.826 294.261 177.279 289.803 160.941C281.373 136 274.93 137.308 269.304 147.625C248.304 196.405 227.297 245.202 206.29 294H145.04L70.5763 121.027C49.7705 75.1919 49.002 104.734 49 126.415V343H0Z" fill="black"/>
</svg>
