<svg width="340" height="359" viewBox="0 0 340 359" fill="none" xmlns="http://www.w3.org/2000/svg">
<path fill-rule="evenodd" clip-rule="evenodd" d="M0 170.03C0 146.51 5.41 124.623 14.23 104.37C23.05 83.79 35.1367 65.66 50.49 49.98C66.17 34.3 84.3 22.05 104.88 13.23C125.46 4.41 147.51 0 171.03 0C194.55 0 216.6 4.41 237.18 13.23C257.76 22.05 275.727 34.3 291.08 49.98C306.76 65.3334 319.01 83.3 327.83 103.88C336.65 124.46 339.06 146.51 339.06 170.03C339.06 206.403 337.091 241.977 319.586 274.6C305.54 301.06 285.776 321.803 260.296 336.83C234.816 351.53 205.089 358.88 171.116 358.88C137.796 358.88 108.396 351.53 82.9161 336.83C57.4361 321.803 37.5095 301.06 23.1362 274.6C5.89328 242.466 0 206.059 0 170.03ZM250.41 213.64C231.137 248.593 207.513 269.07 173.54 269.07C139.893 269.07 112.433 246.593 93.16 211.64L115.7 198.9C122.56 210.66 128.727 221.48 138.2 227.36C147.673 233.24 158.453 236.18 170.54 236.18C182.3 236.18 192.917 233.24 202.39 227.36C211.863 221.48 220.193 212.823 227.38 201.39L250.41 213.64ZM126.44 150.92C121.867 155.493 116.15 157.78 109.29 157.78C102.43 157.78 96.55 155.493 91.65 150.92C86.75 146.02 84.3 140.14 84.3 133.28C84.3 126.42 86.5867 120.703 91.16 116.13C96.06 111.23 102.103 108.78 109.29 108.78C116.477 108.78 122.357 111.23 126.93 116.13C131.503 120.703 133.79 126.42 133.79 133.28C133.79 140.14 131.34 146.02 126.44 150.92ZM250.41 150.92C245.51 155.493 239.63 157.78 232.77 157.78C225.91 157.78 220.03 155.493 215.13 150.92C210.557 146.02 208.27 140.14 208.27 133.28C208.27 126.42 210.557 120.703 215.13 116.13C220.03 111.23 225.91 108.78 232.77 108.78C239.63 108.78 245.51 111.23 250.41 116.13C255.31 120.703 257.76 126.42 257.76 133.28C257.76 140.467 255.31 146.347 250.41 150.92Z" fill="black"/>
</svg>
